<?xml version="1.0" encoding="UTF-8" standalone="no"?>
<!-- Generator: Adobe Illustrator 16.0.4, SVG Export Plug-In . SVG Version: 6.00 Build 0)  -->

<svg
   xmlns:dc="http://purl.org/dc/elements/1.1/"
   xmlns:cc="http://creativecommons.org/ns#"
   xmlns:rdf="http://www.w3.org/1999/02/22-rdf-syntax-ns#"
   xmlns:svg="http://www.w3.org/2000/svg"
   xmlns="http://www.w3.org/2000/svg"
   xmlns:sodipodi="http://sodipodi.sourceforge.net/DTD/sodipodi-0.dtd"
   xmlns:inkscape="http://www.inkscape.org/namespaces/inkscape"
   version="1.1"
   id="uikit_placeholder"
   x="0px"
   y="0px"
   width="500.25"
   height="236.61092"
   viewBox="0 0 500.25 236.61092"
   enable-background="new 0 0 500 500"
   xml:space="preserve"
   sodipodi:docname="placeholder.svg"
   inkscape:version="0.92.3 (unknown)"><metadata
   id="metadata930"><rdf:RDF><cc:Work
       rdf:about=""><dc:format>image/svg+xml</dc:format><dc:type
         rdf:resource="http://purl.org/dc/dcmitype/StillImage" /></cc:Work></rdf:RDF></metadata><defs
   id="defs928" /><sodipodi:namedview
   pagecolor="#ffffff"
   bordercolor="#666666"
   borderopacity="1"
   objecttolerance="10"
   gridtolerance="10"
   guidetolerance="10"
   inkscape:pageopacity="0"
   inkscape:pageshadow="2"
   inkscape:window-width="3379"
   inkscape:window-height="1416"
   id="namedview926"
   showgrid="false"
   inkscape:zoom="1.8299924"
   inkscape:cx="269.70619"
   inkscape:cy="134.84183"
   inkscape:window-x="1427"
   inkscape:window-y="24"
   inkscape:window-maximized="1"
   inkscape:current-layer="uikit_placeholder" />
<rect
   x="0"
   y="0"
   width="500.25"
   height="236.61092"
   id="rect915"
   style="fill:#f8f8f8;stroke-width:0.68791121" />
<g
   id="g923"
   transform="translate(0.5,-157.42679)">
	<path
   d="m 182.315,196.75 v 106.5 h 135.37 V 196.75 Z M 306.78,291.703 H 193.864 V 208.299 H 306.78 Z"
   id="path917"
   inkscape:connector-curvature="0"
   style="fill:#777777" />
	<polygon
   points="301.827,282.865 199.715,282.865 223.088,258.295 231.847,262.088 259.477,232.661 270.358,245.676 275.262,242.711 "
   id="polygon919"
   style="fill:#777777" />
	<circle
   cx="226.71899"
   cy="229.41701"
   r="10.21"
   id="circle921"
   style="fill:#777777" />
</g>
<g
   aria-label="Could not load image"
   style="font-style:normal;font-weight:normal;font-size:40px;line-height:1.25;font-family:sans-serif;letter-spacing:0px;word-spacing:0px;fill:#777777;fill-opacity:1;stroke:none"
   id="text4529"><path
     style=""
     d="m 122.92578,158.53711 v 30.39062 h 3.59375 v -30.39062 z m 25.48828,0 v 11.83594 c -0.7552,-1.30209 -1.71224,-2.26563 -2.87109,-2.89063 -1.14583,-0.63802 -2.52605,-0.95703 -4.14063,-0.95703 -2.64323,0 -4.79817,1.05469 -6.46484,3.16406 -1.65365,2.10938 -2.48047,4.88282 -2.48047,8.32032 0,3.4375 0.82682,6.21093 2.48047,8.32031 1.66667,2.10937 3.82161,3.16406 6.46484,3.16406 1.61458,0 2.9948,-0.3125 4.14063,-0.9375 1.15885,-0.63802 2.11589,-1.60807 2.87109,-2.91016 v 3.28125 h 3.59375 v -30.39062 z m 102.01172,0 v 30.39062 h 3.59375 v -30.39062 z m 74.47266,0 v 11.83594 c -0.75521,-1.30209 -1.71224,-2.26563 -2.8711,-2.89063 -1.14583,-0.63802 -2.52603,-0.95703 -4.14062,-0.95703 -2.64323,0 -4.79818,1.05469 -6.46484,3.16406 -1.65365,2.10938 -2.48047,4.88282 -2.48047,8.32032 0,3.4375 0.82682,6.21093 2.48047,8.32031 1.66666,2.10937 3.82161,3.16406 6.46484,3.16406 1.61459,0 2.99479,-0.3125 4.14062,-0.9375 1.15886,-0.63802 2.11589,-1.60807 2.8711,-2.91016 v 3.28125 h 3.59375 v -30.39062 z m 23.73047,0 v 4.55078 h 3.59375 v -4.55078 z m -290.800785,0.70312 c -4.414062,0 -7.890625,1.35417 -10.429687,4.0625 -2.539063,2.69532 -3.808594,6.38672 -3.808594,11.07422 0,4.67448 1.269531,8.36589 3.808594,11.07422 2.539062,2.69532 6.015625,4.04297 10.429687,4.04297 1.71875,0 3.346354,-0.23438 4.882813,-0.70312 1.549479,-0.46876 3.014323,-1.17188 4.394531,-2.10938 v -4.12109 c -1.328125,1.23698 -2.747396,2.16146 -4.257813,2.77343 -1.497396,0.61198 -3.092447,0.91797 -4.785156,0.91797 -3.333333,0 -5.885417,-1.01563 -7.65625,-3.04687 C 48.635417,181.1608 47.75,178.2181 47.75,174.37695 c 0,-3.85416 0.885417,-6.79688 2.65625,-8.82812 1.770833,-2.04428 4.322917,-3.06641 7.65625,-3.06641 1.692709,0 3.28776,0.30599 4.785156,0.91797 1.510417,0.61198 2.929688,1.53646 4.257813,2.77344 v -4.16016 c -1.354167,-0.92448 -2.80599,-1.61458 -4.355469,-2.07031 -1.536458,-0.46875 -3.177083,-0.70313 -4.921875,-0.70313 z m 164.101565,1.60157 v 6.21093 h -2.63672 v 2.79297 h 2.63672 v 11.875 c 0,2.73438 0.52734,4.6224 1.58203,5.66407 1.05469,1.02864 2.96875,1.54296 5.74219,1.54296 h 3.6914 v -3.00781 h -3.6914 c -1.4974,0 -2.4935,-0.2539 -2.98829,-0.76172 -0.48177,-0.50781 -0.72265,-1.65364 -0.72265,-3.4375 v -11.875 h 7.40234 v -2.79297 h -7.40234 v -6.21093 z m -140.371096,5.68359 c -3.138021,0 -5.598959,1.01562 -7.382813,3.04688 -1.770833,2.03124 -2.65625,4.84374 -2.65625,8.4375 0,3.58072 0.885417,6.39322 2.65625,8.4375 1.783854,2.03124 4.244792,3.04687 7.382813,3.04687 3.125,0 5.579427,-1.01563 7.363281,-3.04687 1.783855,-2.04428 2.675781,-4.85678 2.675781,-8.4375 0,-3.59376 -0.891926,-6.40626 -2.675781,-8.4375 -1.783854,-2.03126 -4.238281,-3.04688 -7.363281,-3.04688 z m 101.132816,0 c -1.52344,0 -2.8711,0.32552 -4.04297,0.97656 -1.15886,0.65105 -2.16797,1.63412 -3.02735,2.94922 v -3.39844 h -3.61328 v 21.875 h 3.61328 v -12.36328 c 0,-2.13541 0.5599,-3.82161 1.67969,-5.05859 1.11979,-1.23698 2.64974,-1.85547 4.58984,-1.85547 1.61458,0 2.82552,0.51432 3.63282,1.54297 0.80729,1.02865 1.21094,2.57812 1.21094,4.64844 v 13.08593 h 3.59374 v -13.20312 c 0,-3.02083 -0.64452,-5.30599 -1.93359,-6.85547 -1.28906,-1.5625 -3.1901,-2.34375 -5.70312,-2.34375 z m 23.32031,0 c -3.13802,0 -5.59896,1.01562 -7.38281,3.04688 -1.77084,2.03124 -2.65625,4.84374 -2.65625,8.4375 0,3.58072 0.88541,6.39322 2.65625,8.4375 1.78385,2.03124 4.24479,3.04687 7.38281,3.04687 3.125,0 5.57943,-1.01563 7.36328,-3.04687 1.78385,-2.04428 2.67578,-4.85678 2.67578,-8.4375 0,-3.59376 -0.89193,-6.40626 -2.67578,-8.4375 -1.78385,-2.03126 -4.23828,-3.04688 -7.36328,-3.04688 z m 63.98437,0 c -3.13802,0 -5.59896,1.01562 -7.38281,3.04688 -1.77083,2.03124 -2.65625,4.84374 -2.65625,8.4375 0,3.58072 0.88542,6.39322 2.65625,8.4375 1.78385,2.03124 4.24479,3.04687 7.38281,3.04687 3.125,0 5.57943,-1.01563 7.36329,-3.04687 1.78385,-2.04428 2.67578,-4.85678 2.67578,-8.4375 0,-3.59376 -0.89193,-6.40626 -2.67578,-8.4375 -1.78386,-2.03126 -4.23829,-3.04688 -7.36329,-3.04688 z m 23.65235,0 c -1.17188,0 -2.3763,0.13021 -3.61328,0.39063 -1.23698,0.24739 -2.51302,0.62499 -3.82813,1.13281 v 3.32031 c 1.09375,-0.59896 2.23308,-1.04818 3.41797,-1.34766 1.1849,-0.29947 2.40234,-0.44921 3.65234,-0.44921 1.96614,0 3.48958,0.45573 4.57032,1.36718 1.09374,0.89844 1.64062,2.17448 1.64062,3.82813 v 0.35156 h -5.03906 c -3.26823,0 -5.72917,0.625 -7.38281,1.875 -1.64063,1.25 -2.46094,3.10547 -2.46094,5.56641 0,2.10937 0.65755,3.79557 1.97265,5.05859 1.32812,1.25 3.11198,1.875 5.35157,1.875 1.77083,0 3.26823,-0.3125 4.49219,-0.9375 1.22395,-0.63802 2.24609,-1.62109 3.0664,-2.94922 v 3.32031 h 3.59375 v -12.48046 c 0,-3.33334 -0.78125,-5.82032 -2.34375,-7.46094 -1.5625,-1.64063 -3.92578,-2.46094 -7.08984,-2.46094 z m 76.58203,0 c -1.57552,0 -2.9362,0.31901 -4.08203,0.95703 -1.14584,0.63802 -2.12891,1.62761 -2.94922,2.96875 v -3.39844 h -3.61328 v 21.875 h 3.61328 v -12.36328 c 0,-2.12239 0.54037,-3.80208 1.62109,-5.03906 1.08074,-1.25 2.53907,-1.875 4.375,-1.875 1.54948,0 2.69532,0.50781 3.4375,1.52344 0.7422,1.0026 1.11328,2.55859 1.11328,4.66797 v 13.08593 h 3.61329 v -12.36328 c 0,-2.13541 0.54036,-3.82161 1.62109,-5.05859 1.08073,-1.23698 2.55208,-1.85547 4.41406,-1.85547 1.52344,0 2.65625,0.50781 3.39844,1.52344 0.74219,1.01562 1.11328,2.57161 1.11328,4.66797 v 13.08593 h 3.61328 v -13.20312 c 0,-2.94271 -0.61849,-5.20833 -1.85547,-6.79688 -1.23697,-1.60156 -2.99479,-2.40234 -5.27344,-2.40234 -1.69271,0 -3.16406,0.38412 -4.41406,1.15234 -1.25,0.76824 -2.32422,1.95964 -3.22265,3.57422 -0.53386,-1.53645 -1.36068,-2.70833 -2.48047,-3.51562 -1.10678,-0.8073 -2.45443,-1.21094 -4.04297,-1.21094 z m 36.15234,0 c -1.17187,0 -2.3763,0.13021 -3.61328,0.39063 -1.23698,0.24739 -2.51302,0.62499 -3.82812,1.13281 v 3.32031 c 1.09374,-0.59896 2.23307,-1.04818 3.41797,-1.34766 1.18489,-0.29947 2.40234,-0.44921 3.65234,-0.44921 1.96615,0 3.48958,0.45573 4.57031,1.36718 1.09375,0.89844 1.64063,2.17448 1.64063,3.82813 v 0.35156 h -5.03907 c -3.26823,0 -5.72916,0.625 -7.38281,1.875 -1.64062,1.25 -2.46094,3.10547 -2.46094,5.56641 0,2.10937 0.65756,3.79557 1.97266,5.05859 1.32813,1.25 3.11198,1.875 5.35156,1.875 1.77084,0 3.26823,-0.3125 4.49219,-0.9375 1.22396,-0.63802 2.24609,-1.62109 3.06641,-2.94922 v 3.32031 h 3.59375 v -12.48046 c 0,-3.33334 -0.78125,-5.82032 -2.34375,-7.46094 -1.5625,-1.64063 -3.92578,-2.46094 -7.08985,-2.46094 z m 24.23828,0 c -2.68229,0 -4.84374,1.02213 -6.48437,3.06641 -1.64063,2.04426 -2.46094,4.75911 -2.46094,8.14453 0,3.37239 0.82031,6.08072 2.46094,8.125 1.64063,2.04426 3.80208,3.0664 6.48437,3.0664 1.61458,0 3.00131,-0.31901 4.16016,-0.95703 1.15885,-0.63802 2.10938,-1.60156 2.85156,-2.89062 v 1.77734 c 0,2.48698 -0.58594,4.34245 -1.75781,5.56641 -1.17187,1.23698 -2.9362,1.85547 -5.29297,1.85547 -1.06771,0 -2.11588,-0.13672 -3.14453,-0.41016 -1.02865,-0.27344 -2.07031,-0.69662 -3.125,-1.26953 v 3.49609 c 1.05469,0.39063 2.14193,0.67708 3.26172,0.85938 1.11979,0.19531 2.3112,0.29297 3.57422,0.29297 3.41146,0 5.94401,-0.91146 7.59765,-2.73438 1.65364,-1.80989 2.48047,-4.57682 2.48047,-8.30078 v -19.16016 h -3.59375 v 3.32032 c -0.74218,-1.28907 -1.69271,-2.25261 -2.85156,-2.89063 -1.15885,-0.63802 -2.54558,-0.95703 -4.16016,-0.95703 z m 27.16797,0 c -3.28124,0 -5.89192,1.05469 -7.83203,3.16406 -1.92708,2.09636 -2.89062,4.93489 -2.89062,8.51563 0,3.46354 1.01562,6.21093 3.04687,8.24219 2.04427,2.03124 4.8112,3.04687 8.30078,3.04687 1.39324,0 2.76693,-0.14323 4.1211,-0.42969 1.35416,-0.28645 2.67578,-0.70312 3.96484,-1.25 v -3.39843 c -1.27604,0.67708 -2.5651,1.18489 -3.86719,1.52343 -1.28906,0.33855 -2.6237,0.50782 -4.0039,0.50782 -2.38282,0 -4.24479,-0.64453 -5.58594,-1.9336 -1.32813,-1.30208 -2.07032,-3.1901 -2.22656,-5.66406 h 16.52343 v -1.75781 c 0,-3.25522 -0.85937,-5.82683 -2.57812,-7.71485 -1.70573,-1.90104 -4.02994,-2.85156 -6.97266,-2.85156 z m -360.624998,0.52734 v 13.24219 c 0,3.00782 0.651042,5.29297 1.953126,6.85547 1.302082,1.5625 3.209632,2.34375 5.722652,2.34375 1.52344,0 2.85808,-0.31901 4.00391,-0.95703 1.15885,-0.65104 2.17447,-1.64062 3.04687,-2.96875 v 3.35937 h 3.59376 v -21.875 h -3.59376 v 12.40235 c 0,2.13541 -0.5664,3.82161 -1.69921,5.05859 -1.1198,1.23698 -2.64974,1.85547 -4.58985,1.85547 -1.61458,0 -2.82552,-0.51432 -3.63281,-1.54297 -0.80729,-1.04166 -1.21094,-2.59765 -1.21094,-4.66797 v -13.10547 z m 251.464848,0 v 21.875 h 3.59375 v -21.875 z m -206.34766,2.48047 c 1.90104,0 3.39843,0.75521 4.49219,2.26563 1.09374,1.49739 1.64062,3.5677 1.64062,6.21094 0,2.64322 -0.54688,4.72005 -1.64062,6.23046 -1.09376,1.4974 -2.59115,2.2461 -4.49219,2.2461 -1.90104,0 -3.39843,-0.7487 -4.49219,-2.2461 -1.08072,-1.51041 -1.62109,-3.58724 -1.62109,-6.23046 0,-2.64324 0.54037,-4.71355 1.62109,-6.21094 1.09376,-1.51042 2.59115,-2.26563 4.49219,-2.26563 z m 176.48437,0 c 1.90105,0 3.39845,0.75521 4.49219,2.26563 1.09376,1.49739 1.64063,3.5677 1.64063,6.21094 0,2.64322 -0.54687,4.72005 -1.64063,6.23046 -1.09374,1.4974 -2.59114,2.2461 -4.49219,2.2461 -1.90104,0 -3.39844,-0.7487 -4.49218,-2.2461 -1.08073,-1.51041 -1.6211,-3.58724 -1.6211,-6.23046 0,-2.64324 0.54037,-4.71355 1.6211,-6.21094 1.09374,-1.51042 2.59114,-2.26563 4.49218,-2.26563 z m 112.73438,0 c 1.94011,0 3.44401,0.71615 4.51172,2.14844 1.08073,1.43229 1.62109,3.45052 1.62109,6.05469 0,2.59114 -0.54036,4.60287 -1.62109,6.03515 -1.06771,1.4323 -2.57161,2.14844 -4.51172,2.14844 -1.92708,0 -3.43099,-0.71614 -4.51172,-2.14844 -1.06771,-1.43228 -1.60156,-3.44401 -1.60156,-6.03515 0,-2.60417 0.53385,-4.6224 1.60156,-6.05469 1.08073,-1.43229 2.58464,-2.14844 4.51172,-2.14844 z m -349.941406,0.0391 c 1.914062,0 3.43099,0.76172 4.550781,2.28515 1.119792,1.51042 1.679687,3.5612 1.679687,6.15235 0,2.60416 -0.559895,4.66146 -1.679687,6.17187 -1.119791,1.51042 -2.636719,2.26563 -4.550781,2.26563 -1.940104,0 -3.470052,-0.7487 -4.589844,-2.2461 -1.106771,-1.51041 -1.660156,-3.57422 -1.660156,-6.1914 0,-2.6172 0.559895,-4.67449 1.679687,-6.17188 1.119792,-1.51041 2.643229,-2.26562 4.570313,-2.26562 z m 124.453126,0 c 1.91406,0 3.43099,0.76172 4.55078,2.28515 1.11979,1.51042 1.67969,3.5612 1.67969,6.15235 0,2.60416 -0.5599,4.66146 -1.67969,6.17187 -1.11979,1.51042 -2.63672,2.26563 -4.55078,2.26563 -1.94011,0 -3.47006,-0.7487 -4.58984,-2.2461 -1.10678,-1.51041 -1.66016,-3.57422 -1.66016,-6.1914 0,-2.6172 0.55989,-4.67449 1.67969,-6.17188 1.11979,-1.51041 2.64323,-2.26562 4.57031,-2.26562 z m 63.98437,0 c 1.91406,0 3.43099,0.76172 4.55079,2.28515 1.11978,1.51042 1.67968,3.5612 1.67968,6.15235 0,2.60416 -0.5599,4.66146 -1.67968,6.17187 -1.1198,1.51042 -2.63673,2.26563 -4.55079,2.26563 -1.9401,0 -3.47005,-0.7487 -4.58984,-2.2461 -1.10677,-1.51041 -1.66016,-3.57422 -1.66016,-6.1914 0,-2.6172 0.5599,-4.67449 1.67969,-6.17188 1.11979,-1.51041 2.64323,-2.26562 4.57031,-2.26562 z m 187.83203,0 c 1.77084,0 3.19011,0.58593 4.25782,1.75781 1.0807,1.17187 1.63409,2.74088 1.66015,4.70703 l -12.8125,0.0195 c 0.18229,-2.05729 0.8724,-3.65234 2.07032,-4.78516 1.21093,-1.1328 2.819,-1.69921 4.82421,-1.69921 z m -161.91406,8.35937 h 3.57422 v 0.80078 c 0,2.34376 -0.60547,4.22527 -1.8164,5.64453 -1.19793,1.40626 -2.79297,2.10938 -4.78516,2.10938 -1.44531,0 -2.59115,-0.3711 -3.4375,-1.11328 -0.83333,-0.75522 -1.25,-1.77084 -1.25,-3.04688 0,-1.60156 0.55989,-2.73437 1.67969,-3.39844 1.11979,-0.66406 3.13151,-0.99609 6.03515,-0.99609 z m 112.73438,0 h 3.57422 v 0.80078 c 0,2.34376 -0.60547,4.22527 -1.81641,5.64453 -1.19791,1.40626 -2.79297,2.10938 -4.78516,2.10938 -1.44531,0 -2.59114,-0.3711 -3.4375,-1.11328 -0.83333,-0.75522 -1.25,-1.77084 -1.25,-3.04688 0,-1.60156 0.5599,-2.73437 1.67969,-3.39844 1.11979,-0.66406 3.13151,-0.99609 6.03516,-0.99609 z"
     id="path858" /></g>

</svg>